<?xml version="1.0" standalone="no"?>
<!DOCTYPE svg PUBLIC "-//W3C//DTD SVG 1.1//EN" "http://www.w3.org/Graphics/SVG/1.1/DTD/svg11.dtd" >
<svg xmlns="http://www.w3.org/2000/svg">
<metadata></metadata>
<defs>
<font id="dukefill" horiz-adv-x="688" >
<font-face units-per-em="2048" ascent="1536" descent="-512" />
<missing-glyph horiz-adv-x="198" />
<glyph horiz-adv-x="2048" />
<glyph horiz-adv-x="2048" />
<glyph unicode="&#xd;" horiz-adv-x="2048" />
<glyph unicode=" "  horiz-adv-x="198" />
<glyph unicode="&#x09;" horiz-adv-x="198" />
<glyph unicode="&#xa0;" horiz-adv-x="198" />
<glyph unicode="!" horiz-adv-x="348" d="M82 0v184h184v-184h-184zM82 246v1188h184v-1188h-184z" />
<glyph unicode="&#x22;" horiz-adv-x="512" d="M41 1126v308h184v-308h-184zM287 1126v308h184v-308h-184z" />
<glyph unicode="#" horiz-adv-x="972" d="M41 371v184h184v266h-184v185h184v428h185v-428h153v428h185v-428h184v-185h-184v-266h184v-184h-184v-371h-185v371h-153v-371h-185v371h-184zM410 555h153v266h-153v-266z" />
<glyph unicode="$" d="M82 121v311h184v-248h156v463h-217q-52 0 -87.5 37t-35.5 84v543q0 54 34 88.5t89 34.5h49v184h184v-184h45q53 0 88 -34.5t35 -86.5v-301h-184v237h-156v-418h217q52 0 87.5 -36t35.5 -86v-588q0 -50 -36 -85.5t-87 -35.5h-47v-147h-184v147h-47q-50 0 -86.5 36 t-36.5 85z" />
<glyph unicode="%" horiz-adv-x="1249" d="M61 803v508q0 49 36.5 86t86.5 37h205q52 0 87.5 -36.5t35.5 -86.5v-508q0 -50 -36 -85.5t-87 -35.5h-205q-50 0 -86.5 36t-36.5 85zM174 0l709 1434h200l-714 -1434h-195zM246 866h82v383h-82v-383zM737 121v508q0 49 36.5 86t86.5 37h205q52 0 87.5 -36.5t35.5 -86.5 v-508q0 -50 -36 -85.5t-87 -35.5h-205q-50 0 -86.5 36t-36.5 85zM922 184h82v383h-82v-383z" />
<glyph unicode="&#x26;" horiz-adv-x="770" d="M82 121v448q0 61 27 102t69 50l-45 72q-29 50 -29 112v408q0 52 35 86.5t88 34.5h234q52 0 87.5 -36.5t35.5 -86.5v-244h-185v182h-110v-370l133 -207v182h184v-469l82 -125v-260h-43l-49 72q-15 -32 -46 -52t-67 -20h-278q-17 0 -25 2q-42 7 -70 41.5t-28 77.5zM266 184 h156v160l-156 244v-404z" />
<glyph unicode="'" horiz-adv-x="266" d="M41 1270v82v184h184v-184l-82 -82h-102z" />
<glyph unicode="(" horiz-adv-x="434" d="M82 121v1190q0 49 37 86t86 37h157v-185h-96v-1065h96v-184h-157q-50 0 -86.5 36t-36.5 85z" />
<glyph unicode=")" horiz-adv-x="460" d="M98 0v184h97v1065h-97v185h158q52 0 87.5 -36.5t35.5 -86.5v-1190q0 -50 -36 -85.5t-87 -35.5h-158z" />
<glyph unicode="*" horiz-adv-x="774" d="M86 1085l111 64l-111 63l92 160l111 -63v127h184v-127l111 63l92 -160l-111 -63l111 -64l-92 -159l-111 63v-127h-184v127l-111 -63z" />
<glyph unicode="+" horiz-adv-x="798" d="M41 633v184h266v289h185v-289h266v-184h-266v-266h-185v266h-266z" />
<glyph unicode="," horiz-adv-x="266" d="M41 0v184h184v-184l-82 -82h-102v82z" />
<glyph unicode="-" horiz-adv-x="552" d="M41 647v184h471v-184h-471z" />
<glyph unicode="." horiz-adv-x="266" d="M41 0v184h184v-184h-184z" />
<glyph unicode="/" horiz-adv-x="509" d="M6 0l299 1434h201l-305 -1434h-195z" />
<glyph unicode="0" d="M82 121v1190q0 49 37 86t86 37h278q52 0 87.5 -36.5t35.5 -86.5v-1190q0 -50 -36 -85.5t-87 -35.5h-278q-50 0 -86.5 36t-36.5 85zM266 184h156v484l-156 -353v-131zM266 770l156 369v110h-156v-479z" />
<glyph unicode="1" horiz-adv-x="378" d="M31 1249v103l82 82h184v-1434h-184v1192v57h-82z" />
<glyph unicode="2" d="M82 0v659q0 50 35.5 86.5t87.5 36.5h217v467h-156v-237h-184v301q0 52 35 86.5t88 34.5h278q55 0 89 -34.5t34 -88.5v-592q0 -47 -35.5 -84t-87.5 -37h-217v-414h156v164h184v-164v-184h-524z" />
<glyph unicode="3" d="M82 121v303h184v-240h156v463h-186v184h186v418h-156v-245h-184v309q0 52 35 86.5t88 34.5h278q52 0 87.5 -36.5t35.5 -86.5v-461q0 -38 -22.5 -64.5t-63.5 -35.5q39 -9 62.5 -44.5t23.5 -76.5v-508q0 -50 -36 -85.5t-87 -35.5h-278q-17 0 -25 2q-42 7 -70 41.5t-28 77.5 z" />
<glyph unicode="4" horiz-adv-x="684" d="M61 1434h185v-662h133v662h184v-662h123v-184h-123v-588h-184v588h-316z" />
<glyph unicode="5" horiz-adv-x="692" d="M82 121v311h184v-248h156v463h-340l2 787h524v-185h-342v-418h217q52 0 87.5 -36t35.5 -86v-588q0 -50 -36 -85.5t-87 -35.5h-278q-50 0 -86.5 36t-36.5 85z" />
<glyph unicode="6" d="M82 121v1192q0 49 37 86t86 37h278q52 0 87.5 -36.5t35.5 -86.5v-273h-184v211h-156v-420h217q52 0 87.5 -36t35.5 -86v-588q0 -50 -36 -85.5t-87 -35.5h-278q-50 0 -86.5 36t-36.5 85zM266 184h156v463h-156v-463z" />
<glyph unicode="7" horiz-adv-x="577" d="M20 1249v185h537v-226l-223 -1208h-195l232 1249h-351z" />
<glyph unicode="8" d="M82 121v508q0 41 23.5 76.5t62.5 44.5q-28 8 -46 35t-18 65v463q0 52 35 86.5t88 34.5h234q52 0 87.5 -36.5t35.5 -86.5v-461q0 -38 -18 -65t-46 -35q39 -9 62.5 -44.5t23.5 -76.5v-508q0 -50 -36 -85.5t-87 -35.5h-278q-17 0 -25 2q-42 7 -70 41.5t-28 77.5zM266 184 h156v463h-156v-463zM289 831h110v418h-110v-418z" />
<glyph unicode="9" d="M82 121v313h184v-250h156v463h-217q-50 0 -86.5 36t-36.5 85v563q6 44 41 73.5t82 29.5h278q52 0 87.5 -36.5t35.5 -86.5v-1190q0 -50 -36 -85.5t-87 -35.5h-278q-17 0 -25 2q-42 7 -70 41.5t-28 77.5zM266 831h156v418h-156v-418z" />
<glyph unicode=":" horiz-adv-x="266" d="M41 0v184h184v-184h-184zM41 647v184h184v-184h-184z" />
<glyph unicode=";" horiz-adv-x="266" d="M41 0v184h184v-184l-82 -82h-102v82zM41 647v184h184v-184h-184z" />
<glyph unicode="&#x3c;" horiz-adv-x="514" d="M61 754v143l267 266l129 -123l-219 -215l219 -213l-129 -127z" />
<glyph unicode="=" horiz-adv-x="552" d="M41 412v184h471v-184h-471zM41 780v185h471v-185h-471z" />
<glyph unicode="&#x3e;" horiz-adv-x="499" d="M61 612l220 213l-220 215l129 123l267 -266v-143l-267 -269z" />
<glyph unicode="?" horiz-adv-x="686" d="M82 1004v309q0 52 35 86.5t88 34.5h278q52 0 87.5 -36.5t35.5 -86.5v-543q0 -50 -35.5 -85.5t-87.5 -35.5h-41v-340h-184v524h164v418h-156v-245h-184zM258 0v184h184v-184h-184z" />
<glyph unicode="@" horiz-adv-x="1261" d="M82 121v1190q0 49 37 86t86 37h852q52 0 87.5 -36.5t35.5 -86.5v-905q0 -50 -36 -85.5t-87 -35.5h-565q-50 0 -86.5 36t-36.5 85v268q0 50 36.5 86.5t86.5 36.5h217v164h-156v-103h-184v164q0 50 36.5 86.5t86.5 36.5h278q52 0 87.5 -36.5t35.5 -86.5v-553h102v780h-729 v-1065h924v-184h-985q-50 0 -86.5 36t-36.5 85zM553 469h156v143h-156v-143z" />
<glyph unicode="A" horiz-adv-x="692" d="M33 0l151 1434h328l147 -1434h-180l-28 281h-205l-29 -281h-184zM266 465h164l-82 784z" />
<glyph unicode="B" horiz-adv-x="679" d="M82 0v1434h379q52 0 87.5 -36.5t35.5 -86.5v-461q0 -38 -18 -65t-46 -35q39 -9 62.5 -44.5t23.5 -76.5v-508q0 -50 -36 -85.5t-87 -35.5h-401zM266 184h156v463h-156v-463zM266 831h133v418h-133v-418z" />
<glyph unicode="C" horiz-adv-x="659" d="M82 121v1190q0 49 37 86t86 37h278q52 0 87.5 -36.5t35.5 -86.5v-307h-184v245h-156v-1065h156v248h184v-311q0 -50 -36 -85.5t-87 -35.5h-278q-50 0 -86.5 36t-36.5 85z" />
<glyph unicode="D" d="M82 0v1434h401q52 0 87.5 -36.5t35.5 -86.5v-1190q0 -50 -36 -85.5t-87 -35.5h-401zM266 184h156v1065h-156v-1065z" />
<glyph unicode="E" horiz-adv-x="618" d="M82 0v1434h461v-185h-277v-395h195v-184h-195v-486h291v-184h-475z" />
<glyph unicode="F" horiz-adv-x="583" d="M82 0v1434h461v-185h-277v-395h195v-184h-195v-670h-184z" />
<glyph unicode="G" d="M82 121v1190q0 49 37 86t86 37h278q52 0 87.5 -36.5t35.5 -86.5v-307h-184v245h-156v-1065h156v330h-62v184h246v-577q0 -50 -36 -85.5t-87 -35.5h-278q-50 0 -86.5 36t-36.5 85z" />
<glyph unicode="H" d="M82 0v1434h184v-662h156v662h184v-1434h-184v588h-156v-588h-184z" />
<glyph unicode="I" horiz-adv-x="348" d="M82 0v1434h184v-1434h-184z" />
<glyph unicode="J" horiz-adv-x="647" d="M41 121v311h184v-248h156v1250h184v-1313q0 -50 -36 -85.5t-87 -35.5h-278q-50 0 -86.5 36t-36.5 85z" />
<glyph unicode="K" horiz-adv-x="636" d="M82 0v1434h184v-539l144 539h194l-194 -666l217 -768h-191l-170 627v-627h-184z" />
<glyph unicode="L" horiz-adv-x="522" d="M82 0v1434h184v-1250h217v-184h-401z" />
<glyph unicode="M" horiz-adv-x="978" d="M82 0v1434h184l219 -717l228 717h184v-1434h-184v774l-152 -467h-149l-140 467v-774h-190z" />
<glyph unicode="N" horiz-adv-x="749" d="M82 0v1434h225l176 -713v713h185v-1434h-217l-185 770v-770h-184z" />
<glyph unicode="O" d="M82 121v1190q0 49 37 86t86 37h278q52 0 87.5 -36.5t35.5 -86.5v-1190q0 -50 -36 -85.5t-87 -35.5h-278q-50 0 -86.5 36t-36.5 85zM266 184h156v1065h-156v-1065z" />
<glyph unicode="P" horiz-adv-x="647" d="M82 0v651v783h401q52 0 87.5 -36.5t35.5 -86.5v-539q0 -50 -36 -85.5t-87 -35.5h-217v-651h-184zM266 836h156v413h-156v-413z" />
<glyph unicode="Q" d="M82 121v1190q0 49 37 86t86 37h278q52 0 87.5 -36.5t35.5 -86.5v-1190q0 -50 -36 -85.5t-87 -35.5l78 -123h-182l-78 123h-96q-50 0 -86.5 36t-36.5 85zM266 184h156v1065h-156v-1065z" />
<glyph unicode="R" horiz-adv-x="677" d="M82 0v1434h379q52 0 87.5 -36.5t35.5 -86.5v-500q0 -38 -18 -65t-46 -35q39 -9 62.5 -44.5t23.5 -76.5v-590h-184v608h-156v-608h-184zM266 793h133v456h-133v-456z" />
<glyph unicode="S" d="M82 121v311h184v-248h156v463h-217q-52 0 -87.5 37t-35.5 84v543q0 54 34 88.5t89 34.5h278q53 0 88 -34.5t35 -86.5v-301h-184v237h-156v-418h217q52 0 87.5 -36t35.5 -86v-588q0 -50 -36 -85.5t-87 -35.5h-278q-50 0 -86.5 36t-36.5 85z" />
<glyph unicode="T" horiz-adv-x="552" d="M20 1249v185h512v-185h-163v-1249h-185v1249h-164z" />
<glyph unicode="U" d="M82 121v1313h184v-1250h156v1250h184v-1313q0 -50 -36 -85.5t-87 -35.5h-278q-50 0 -86.5 36t-36.5 85z" />
<glyph unicode="V" horiz-adv-x="638" d="M6 1434h191l122 -1147l123 1147h191l-174 -1434h-279z" />
<glyph unicode="W" horiz-adv-x="1042" d="M10 1434h191l102 -1006l123 1006h190l123 -1002l103 1002h190l-153 -1434h-279l-78 655l-80 -655h-278z" />
<glyph unicode="X" horiz-adv-x="673" d="M25 0l170 707l-170 727h190l123 -539l102 539h195l-156 -729l172 -705h-190l-123 498l-123 -498h-190z" />
<glyph unicode="Y" horiz-adv-x="632" d="M2 1434h191l122 -676l123 676h191l-221 -963v-471h-185v471z" />
<glyph unicode="Z" horiz-adv-x="681" d="M61 0v184l375 1065h-350v185h537v-226l-367 -1024h367v-184h-562z" />
<glyph unicode="[" horiz-adv-x="438" d="M82 -184v1802h280v-184h-96v-1434h96v-184h-280z" />
<glyph unicode="\" horiz-adv-x="512" d="M6 1434h201l299 -1434h-195z" />
<glyph unicode="]" horiz-adv-x="444" d="M82 0h96v1434h-96v184h280v-1802h-280v184z" />
<glyph unicode="^" horiz-adv-x="753" d="M29 778l293 293h131l292 -293l-122 -129l-236 240l-235 -236z" />
<glyph unicode="_" horiz-adv-x="675" d="M61 0h574v-184h-574v184z" />
<glyph unicode="`" horiz-adv-x="589" d="M90 1765l133 127l281 -299l-133 -127z" />
<glyph unicode="a" d="M33 0l151 1167h328l147 -1167h-190l-25 199h-190l-25 -199h-196zM276 383h146l-74 600z" />
<glyph unicode="b" horiz-adv-x="667" d="M82 0v1167h379q52 0 87.5 -36.5t35.5 -86.5v-337q0 -38 -18 -65.5t-46 -35.5q39 -9 62.5 -44.5t23.5 -76.5v-364q0 -50 -36 -85.5t-87 -35.5h-401zM266 184h156v320h-156v-320zM266 688h133v295h-133v-295z" />
<glyph unicode="c" d="M82 121v923q0 50 37 86.5t86 36.5h278q52 0 87.5 -36.5t35.5 -86.5v-225h-184v164h-156v-799h156v166h184v-229q0 -50 -36 -85.5t-87 -35.5h-278q-50 0 -86.5 36t-36.5 85z" />
<glyph unicode="d" d="M82 0v1167h401q52 0 87.5 -36.5t35.5 -86.5v-923q0 -50 -36 -85.5t-87 -35.5h-401zM266 184h156v799h-156v-799z" />
<glyph unicode="e" horiz-adv-x="618" d="M82 0v1167h461v-184h-277v-297h195v-184h-195v-318h291v-184h-475z" />
<glyph unicode="f" horiz-adv-x="583" d="M82 0v1167h461v-184h-277v-297h236v-184h-236v-502h-184z" />
<glyph unicode="g" d="M82 121v923q0 50 37 86.5t86 36.5h278q52 0 87.5 -36.5t35.5 -86.5v-225h-184v164h-156v-799h156v166h-62v185h246v-414q0 -50 -36 -85.5t-87 -35.5h-278q-50 0 -86.5 36t-36.5 85z" />
<glyph unicode="h" d="M82 0v1167h184v-497h156v497h184v-1167h-184v485h-156v-485h-184z" />
<glyph unicode="i" horiz-adv-x="348" d="M82 0v1167h184v-1167h-184z" />
<glyph unicode="j" horiz-adv-x="647" d="M41 121v311h184v-248h156v983h184v-1046q0 -50 -36 -85.5t-87 -35.5h-278q-50 0 -86.5 36t-36.5 85z" />
<glyph unicode="k" horiz-adv-x="645" d="M82 0v1167h184v-415l144 415h194l-194 -542l217 -625h-191l-170 483v-483h-184z" />
<glyph unicode="l" horiz-adv-x="524" d="M82 0v1167h184v-983h217v-184h-401z" />
<glyph unicode="m" horiz-adv-x="978" d="M82 0v1167h184l219 -673l228 673h184v-1167h-184v631l-152 -467h-149l-142 467l2 -631h-190z" />
<glyph unicode="n" horiz-adv-x="749" d="M82 0v1167h225l176 -549v549h185v-1167h-191l-211 668v-668h-184z" />
<glyph unicode="o" d="M82 121v923q0 50 37 86.5t86 36.5h278q52 0 87.5 -36.5t35.5 -86.5v-923q0 -50 -36 -85.5t-87 -35.5h-278q-50 0 -86.5 36t-36.5 85zM266 184h156v799h-156v-799z" />
<glyph unicode="p" horiz-adv-x="647" d="M82 0v467v700h401q52 0 87.5 -36.5t35.5 -86.5v-456q0 -50 -36 -85.5t-87 -35.5h-217v-467h-184zM266 651h156v332h-156v-332z" />
<glyph unicode="q" d="M82 121v923q0 50 37 86.5t86 36.5h278q52 0 87.5 -36.5t35.5 -86.5v-923q0 -50 -36 -85.5t-87 -35.5l78 -123h-182l-78 123h-96q-50 0 -86.5 36t-36.5 85zM266 184h156v799h-156v-799z" />
<glyph unicode="r" d="M82 0v1167h379q52 0 87.5 -36.5t35.5 -86.5v-374q0 -38 -18 -65.5t-46 -35.5q39 -9 62.5 -44t23.5 -76v-449h-184v467h-156v-467h-184zM266 651h133v332h-133v-332z" />
<glyph unicode="s" d="M82 121v188h184v-125h156v320h-217q-52 0 -87.5 37t-35.5 84v419q0 54 34 88.5t89 34.5h278q53 0 88 -34t35 -86v-179h-184v115h-156v-295h217q52 0 87.5 -36.5t35.5 -86.5v-444q0 -50 -36 -85.5t-87 -35.5h-278q-50 0 -86.5 36t-36.5 85z" />
<glyph unicode="t" horiz-adv-x="552" d="M20 983v184h512v-184h-163v-983h-185v983h-164z" />
<glyph unicode="u" d="M82 121v1046h184v-983h156v983h184v-1046q0 -50 -36 -85.5t-87 -35.5h-278q-50 0 -86.5 36t-36.5 85z" />
<glyph unicode="v" horiz-adv-x="647" d="M10 1167h191l123 -880l122 880h191l-174 -1167h-279z" />
<glyph unicode="w" horiz-adv-x="1042" d="M10 1167h191l102 -786l123 786h190l123 -782l103 782h190l-153 -1167h-279l-78 655l-80 -655h-278z" />
<glyph unicode="x" horiz-adv-x="673" d="M25 0l170 584l-170 583h190l123 -395l102 395h195l-156 -585l172 -582h-190l-123 375l-123 -375h-190z" />
<glyph unicode="y" horiz-adv-x="630" d="M2 1167h191l122 -491l123 491h191l-221 -778v-389h-185v389z" />
<glyph unicode="z" horiz-adv-x="684" d="M61 0v184l375 799h-350v184h537v-225l-367 -758h367v-184h-562z" />
<glyph unicode="{" horiz-adv-x="532" d="M61 647v184h125v666q0 52 35 86.5t88 34.5h164v-184h-102v-570q0 -36 -28 -71t-58 -43q39 -9 62.5 -44.5t23.5 -76.5v-629h82v-184h-144q-52 0 -87.5 37t-35.5 84v710h-125z" />
<glyph unicode="|" horiz-adv-x="348" d="M82 -102v1638h184v-1638h-184z" />
<glyph unicode="}" horiz-adv-x="462" d="M-20 0h102v629q0 41 23.5 76.5t62.5 44.5q-32 9 -59 37t-27 63v584h-102v184h163q52 0 87.5 -36.5t35.5 -86.5v-664h135v-184h-135v-710q0 -43 -28 -77.5t-70 -41.5q-8 -2 -25 -2h-163v184z" />
<glyph unicode="~" horiz-adv-x="729" d="M37 780l166 164h143l98 -100l111 117l127 -130l-166 -163h-143l-99 100l-110 -117z" />
<glyph unicode="&#xa1;" horiz-adv-x="348" d="M82 0h184v1188h-184v-1188zM82 1249v185h184v-185h-184z" />
<glyph unicode="&#xa2;" d="M82 428v657q0 49 37 86t86 37h47v328h184v-328h47q52 0 87.5 -36.5t35.5 -86.5v-225h-184v164h-156v-532h156v165h184v-229q0 -50 -36 -85.5t-87 -35.5h-47v-307h-184v307h-47q-50 0 -86.5 36t-36.5 85z" />
<glyph unicode="&#xa3;" horiz-adv-x="759" d="M61 0v184h115v422h-113v185h113v520q0 49 37 86t86 37h238q52 0 87 -36.5t35 -86.5v-226h-184v164h-115v-458h256v-185h-256v-422h338v-184h-637z" />
<glyph unicode="&#xa4;" horiz-adv-x="983" d="M29 393l157 158v348l-157 158l131 131l145 -146h373l145 146l131 -131l-153 -156v-354l153 -154l-131 -131l-166 166h-331l-166 -166zM371 612h245v246h-245v-246z" />
<glyph unicode="&#xa5;" horiz-adv-x="632" d="M-18 1434h211l122 -308l123 308h211l-241 -594v-62h163v-184h-163v-82h163v-184h-163v-328h-185v328h-164v184h164v82h-164v184h164v62z" />
<glyph unicode="&#xa6;" horiz-adv-x="348" d="M82 -184v848h184v-848h-184zM82 745v873h184v-873h-184z" />
<glyph unicode="&#xa7;" horiz-adv-x="831" d="M41 575v269q0 54 34 88.5t89 34.5h22v344q0 54 34 88.5t89 34.5h207q53 0 88 -34.5t35 -86.5v-207h-184v143h-84v-282h297q52 0 87.5 -36.5t35.5 -86.5v-269q0 -50 -36 -85t-87 -35h-29v-334q0 -50 -36 -85.5t-87 -35.5h-207q-50 0 -86.5 36t-36.5 85v201h185v-138h84 v271h-291q-52 0 -87.5 36.5t-35.5 83.5zM225 639h381v143h-381v-143z" />
<glyph unicode="&#xa8;" horiz-adv-x="532" d="M41 1638v185h184v-185h-184zM307 1638v185h185v-185h-185z" />
<glyph unicode="&#xa9;" horiz-adv-x="1212" d="M82 121v1190q0 49 37 86t86 37h803q52 0 87 -36.5t35 -86.5v-1190q0 -50 -35.5 -85.5t-86.5 -35.5h-803q-50 0 -86.5 36t-36.5 85zM266 184h680v1065h-680v-1065zM346 387v657q0 50 37 86.5t86 36.5h279q52 0 87 -36.5t35 -86.5v-225h-184v164h-156v-532h156v165h184 v-229q0 -50 -35.5 -85.5t-86.5 -35.5h-279q-50 0 -86.5 36t-36.5 85z" />
<glyph unicode="&#xaa;" horiz-adv-x="647" d="M61 903v209q0 50 36.5 86.5t86.5 36.5h217v117h-155v-64h-185v125q0 49 36.5 86t86.5 37h279q52 0 87.5 -36.5t35.5 -86.5v-631h-402q-50 0 -86.5 36t-36.5 85zM246 967h155v84h-155v-84z" />
<glyph unicode="&#xab;" horiz-adv-x="833" d="M61 754v143l267 266l129 -123l-219 -215l219 -213l-129 -127zM401 754v143l267 266l129 -123l-219 -215l219 -213l-129 -127z" />
<glyph unicode="&#xac;" horiz-adv-x="708" d="M41 778v185h483q53 0 88 -34.5t35 -86.5v-260h-184v196h-361h-61z" />
<glyph unicode="&#xad;" horiz-adv-x="552" d="M41 647v184h471v-184h-471z" />
<glyph unicode="&#xae;" horiz-adv-x="1359" d="M90 367v944q0 49 37 86t86 37h942q52 0 87.5 -36.5t35.5 -86.5v-944q0 -50 -36 -85.5t-87 -35.5h-942q-50 0 -86.5 36t-36.5 85zM274 430h820v819h-820v-819zM449 492v675h337q52 0 87.5 -36.5t35.5 -86.5v-172q0 -38 -17.5 -65t-45.5 -35q39 -9 62.5 -44.5t23.5 -76.5 v-159h-184v178h-115v-178h-184zM633 854h92v129h-92v-129z" />
<glyph unicode="&#xb0;" horiz-adv-x="647" d="M61 1022v289q0 49 36.5 86t86.5 37h279q52 0 87.5 -36.5t35.5 -86.5v-289q0 -50 -36 -85.5t-87 -35.5h-279q-50 0 -86.5 36t-36.5 85zM246 1085h155v164h-155v-164z" />
<glyph unicode="&#xb1;" horiz-adv-x="798" d="M102 367v184h594v-184h-594zM102 817v184h205v228h185v-228h204v-184h-204v-205h-185v205h-205z" />
<glyph unicode="&#xb2;" horiz-adv-x="583" d="M82 784v316q0 50 35.5 86.5t87.5 36.5h135v129h-74v-74h-184v137q0 52 35 86.5t88 34.5h196q55 0 89 -34.5t34 -88.5v-254q0 -47 -35.5 -84t-87.5 -37h-135v-69h236v-185h-420z" />
<glyph unicode="&#xb3;" horiz-adv-x="606" d="M82 905v146h184v-82h74v108h-145v185h145v90h-74v-70h-184v133q0 52 35 86.5t88 34.5h196q52 0 87.5 -36.5t35.5 -86.5v-133q0 -38 -22.5 -64.5t-63.5 -35.5q39 -9 62.5 -44.5t23.5 -76.5v-154q0 -50 -36 -85.5t-87 -35.5h-196q-17 0 -25 2q-42 7 -70 41.5t-28 77.5z" />
<glyph unicode="&#xb4;" horiz-adv-x="589" d="M90 1593l281 299l133 -127l-281 -299z" />
<glyph unicode="&#xb7;" horiz-adv-x="266" d="M41 657v185h184v-185h-184z" />
<glyph unicode="&#xb8;" horiz-adv-x="534" d="M197 -72h94v72h184v-135q0 -50 -36 -85.5t-87 -35.5h-155v184z" />
<glyph unicode="&#xb9;" horiz-adv-x="389" d="M41 1350v102l82 82h184v-752h-184v510v58h-82z" />
<glyph unicode="&#xba;" d="M82 121v923q0 50 37 86.5t86 36.5h278q52 0 87.5 -36.5t35.5 -86.5v-923q0 -50 -36 -85.5t-87 -35.5h-278q-50 0 -86.5 36t-36.5 85zM266 184h156v799h-156v-799z" />
<glyph unicode="&#xbb;" horiz-adv-x="837" d="M61 612l220 213l-220 215l129 123l267 -266v-143l-267 -269zM401 612l220 213l-220 215l129 123l267 -266v-143l-267 -269z" />
<glyph unicode="&#xbc;" horiz-adv-x="1234" d="M41 1247v103l82 82h184v-752h-184v510v57h-82zM92 0l709 1434h200l-714 -1434h-195zM696 717h185v-355h67v355h185v-355h61v-184h-61v-178h-185v178h-250z" />
<glyph unicode="&#xbd;" horiz-adv-x="1200" d="M41 1247v103l82 82h184v-752h-184v510v57h-82zM92 0l709 1434h200l-714 -1434h-195zM696 0v315q0 50 35.5 86.5t87.5 36.5h135v129h-73v-73h-185v137q0 52 35 86.5t88 34.5h197q55 0 89 -34.5t34 -88.5v-254q0 -47 -35.5 -84t-87.5 -37h-135v-70h235v-184h-420z" />
<glyph unicode="&#xbe;" horiz-adv-x="1359" d="M61 797v145h185v-82h73v109h-145v184h145v90h-73v-69h-185v133q0 52 35 86t88 34h197q52 0 87.5 -36t35.5 -86v-134q0 -38 -22.5 -64.5t-63.5 -35.5q39 -9 62.5 -44.5t23.5 -76.5v-153q0 -50 -36 -85.5t-87 -35.5h-197q-16 0 -24 2q-42 7 -70.5 41.5t-28.5 77.5zM215 0 l709 1434h200l-714 -1434h-195zM819 717h185v-355h67v355h184v-355h62v-184h-62v-178h-184v178h-250z" />
<glyph unicode="&#xbf;" horiz-adv-x="686" d="M82 123q0 -50 35.5 -86.5t87.5 -36.5h278q53 0 88 34.5t35 86.5v309h-184v-246h-156v418h164v524h-184v-340h-41q-52 0 -87.5 -35t-35.5 -85v-543zM246 1249v185h184v-185h-184z" />
<glyph unicode="&#xc0;" horiz-adv-x="692" d="M33 0l151 1434h328l147 -1434h-180l-28 281h-205l-29 -281h-184zM139 1753l133 127l281 -299l-133 -127zM266 465h164l-82 784z" />
<glyph unicode="&#xc1;" horiz-adv-x="692" d="M33 0h184l29 281h205l28 -281h180l-147 1434h-328zM139 1581l281 299l133 -127l-281 -299zM266 465l82 784l82 -784h-164z" />
<glyph unicode="&#xc2;" horiz-adv-x="692" d="M33 0l151 1434h328l147 -1434h-180l-28 281h-205l-29 -281h-184zM70 1604l206 204h144l205 -204l-123 -129l-154 157l-151 -157zM266 465h164l-82 784z" />
<glyph unicode="&#xc3;" horiz-adv-x="692" d="M27 1606l166 163h143l98 -100l111 117l127 -129l-166 -164h-144l-98 100l-110 -116zM33 0l151 1434h328l147 -1434h-180l-28 281h-205l-29 -281h-184zM266 465h164l-82 784z" />
<glyph unicode="&#xc4;" horiz-adv-x="692" d="M33 0h184l29 281h205l28 -281h180l-147 1434h-328zM121 1518v184h184v-184h-184zM266 465l82 784l82 -784h-164zM393 1518v184h185v-184h-185z" />
<glyph unicode="&#xc5;" horiz-adv-x="692" d="M33 0l139 1325q-55 64 -55 152q0 95 67.5 161t163.5 66q95 0 161 -66t66 -161q0 -90 -55 -158l139 -1319h-180l-28 281h-205l-29 -281h-184zM266 465h164l-82 784zM305 1477q0 -19 12 -31t31 -12t31 12t12 31t-12 31t-31 12t-31 -12t-12 -31z" />
<glyph unicode="&#xc6;" horiz-adv-x="976" d="M14 0l299 1434h602v-185h-276v-395h195v-184h-195v-486h291v-184h-475v281h-187l-59 -281h-195zM307 465h148v690z" />
<glyph unicode="&#xc7;" d="M82 121v1190q0 49 37 86t86 37h278q52 0 87.5 -36.5t35.5 -86.5v-307h-184v245h-156v-1065h156v248h184v-311q0 -50 -36 -85.5t-87 -35.5h-41v-135q0 -50 -36 -85.5t-87 -35.5h-155v184h94v72h-53q-50 0 -86.5 36t-36.5 85z" />
<glyph unicode="&#xc8;" horiz-adv-x="618" d="M82 0v1434h461v-185h-277v-395h195v-184h-195v-486h291v-184h-475zM102 1753l134 127l280 -299l-133 -127z" />
<glyph unicode="&#xc9;" horiz-adv-x="618" d="M82 0h475v184h-291v486h195v184h-195v395h277v185h-461v-1434zM102 1581l281 299l133 -127l-280 -299z" />
<glyph unicode="&#xca;" horiz-adv-x="618" d="M33 1604l207 204h143l205 -204l-123 -129l-154 157l-151 -157zM82 0v1434h461v-185h-277v-395h195v-184h-195v-486h291v-184h-475z" />
<glyph unicode="&#xcb;" horiz-adv-x="618" d="M82 0h475v184h-291v486h195v184h-195v395h277v185h-461v-1434zM86 1516v184h184v-184h-184zM352 1516v184h185v-184h-185z" />
<glyph unicode="&#xcc;" horiz-adv-x="348" d="M-33 1753l133 127l281 -299l-133 -127zM82 0v1434h184v-1434h-184z" />
<glyph unicode="&#xcd;" horiz-adv-x="348" d="M-33 1581l281 299l133 -127l-281 -299zM82 0h184v1434h-184v-1434z" />
<glyph unicode="&#xce;" horiz-adv-x="348" d="M82 0v1434h184v-1434h-184z" />
<glyph unicode="&#xcf;" horiz-adv-x="348" d="M-47 1526v184h184v-184h-184zM82 0h184v1434h-184v-1434zM225 1526v184h185v-184h-185z" />
<glyph unicode="&#xd0;" horiz-adv-x="743" d="M41 647v184h96v603h402q52 0 87.5 -36.5t35.5 -86.5v-1190q0 -50 -36 -85.5t-87 -35.5h-402v647h-96zM322 184h155v1065h-155v-418h108v-184h-108v-463z" />
<glyph unicode="&#xd1;" horiz-adv-x="749" d="M51 1604l166 163h143l99 -100l110 117l127 -129l-166 -164h-143l-98 100l-111 -116zM82 0v1434h225l176 -713v713h185v-1434h-217l-185 770v-770h-184z" />
<glyph unicode="&#xd2;" d="M82 121v1190q0 49 37 86t86 37h278q52 0 87.5 -36.5t35.5 -86.5v-1190q0 -50 -36 -85.5t-87 -35.5h-278q-50 0 -86.5 36t-36.5 85zM137 1753l133 127l281 -299l-133 -127zM266 184h156v1065h-156v-1065z" />
<glyph unicode="&#xd3;" d="M82 121q0 -49 36.5 -85t86.5 -36h278q51 0 87 35.5t36 85.5v1190q0 50 -35.5 86.5t-87.5 36.5h-278q-49 0 -86 -37t-37 -86v-1190zM137 1581l281 299l133 -127l-281 -299zM266 184v1065h156v-1065h-156z" />
<glyph unicode="&#xd4;" d="M66 1604l206 204h144l205 -204l-123 -129l-154 157l-151 -157zM82 121v1190q0 49 37 86t86 37h278q52 0 87.5 -36.5t35.5 -86.5v-1190q0 -50 -36 -85.5t-87 -35.5h-278q-50 0 -86.5 36t-36.5 85zM266 184h156v1065h-156v-1065z" />
<glyph unicode="&#xd5;" d="M23 1604l165 163h144l98 -100l111 117l127 -129l-166 -164h-144l-98 100l-110 -116zM82 121v1190q0 49 37 86t86 37h278q52 0 87.5 -36.5t35.5 -86.5v-1190q0 -50 -36 -85.5t-87 -35.5h-278q-50 0 -86.5 36t-36.5 85zM266 184h156v1065h-156v-1065z" />
<glyph unicode="&#xd6;" d="M82 121q0 -49 36.5 -85t86.5 -36h278q51 0 87 35.5t36 85.5v1190q0 50 -35.5 86.5t-87.5 36.5h-278q-49 0 -86 -37t-37 -86v-1190zM119 1516v184h184v-184h-184zM266 184v1065h156v-1065h-156zM385 1516v184h184v-184h-184z" />
<glyph unicode="&#xd7;" horiz-adv-x="745" d="M53 537l189 188l-189 188l131 131l189 -188l188 188l131 -131l-188 -188l188 -188l-131 -131l-188 188l-189 -188z" />
<glyph unicode="&#xd8;" d="M82 121v1190q0 49 37 86t86 37h278q52 0 87.5 -36.5t35.5 -86.5v-1190q0 -50 -36 -85.5t-87 -35.5h-278q-50 0 -86.5 36t-36.5 85zM266 184h156v484l-156 -353v-131zM266 770l156 369v110h-156v-479z" />
<glyph unicode="&#xd9;" d="M82 121v1313h184v-1250h156v1250h184v-1313q0 -50 -36 -85.5t-87 -35.5h-278q-50 0 -86.5 36t-36.5 85zM137 1753l133 127l281 -299l-133 -127z" />
<glyph unicode="&#xda;" d="M82 121q0 -49 36.5 -85t86.5 -36h278q51 0 87 35.5t36 85.5v1313h-184v-1250h-156v1250h-184v-1313zM137 1581l281 299l133 -127l-281 -299z" />
<glyph unicode="&#xdb;" d="M66 1604l206 204h144l205 -204l-123 -129l-154 157l-151 -157zM82 121v1313h184v-1250h156v1250h184v-1313q0 -50 -36 -85.5t-87 -35.5h-278q-50 0 -86.5 36t-36.5 85z" />
<glyph unicode="&#xdc;" d="M82 121q0 -49 36.5 -85t86.5 -36h278q51 0 87 35.5t36 85.5v1313h-184v-1250h-156v1250h-184v-1313zM119 1475v184h184v-184h-184zM385 1475v184h184v-184h-184z" />
<glyph unicode="&#xdd;" horiz-adv-x="632" d="M2 1434h191l122 -676l123 676h191l-221 -963v-471h-185v471zM109 1581l280 299l133 -127l-280 -299z" />
<glyph unicode="&#xde;" d="M82 0v303v864v267h184v-267h217q52 0 87.5 -36.5t35.5 -86.5v-620q0 -50 -36 -85.5t-87 -35.5h-217v-303h-184zM266 487h156v496h-156v-496z" />
<glyph unicode="&#xdf;" horiz-adv-x="667" d="M82 0v1434h379q52 0 87.5 -36.5t35.5 -86.5v-461q0 -38 -18 -65t-46 -35q39 -9 62.5 -44.5t23.5 -76.5v-508q0 -50 -36 -85.5t-87 -35.5h-157v184h96v463h-98v184h75v418h-133v-1249h-184z" />
<glyph unicode="&#xe0;" d="M33 0l151 1167h328l147 -1167h-190l-25 199h-190l-25 -199h-196zM137 1487l133 127l281 -299l-133 -127zM276 383h146l-74 600z" />
<glyph unicode="&#xe1;" d="M33 0h196l25 199h190l25 -199h190l-147 1167h-328zM137 1315l281 299l133 -127l-281 -299zM276 383l72 600l74 -600h-146z" />
<glyph unicode="&#xe2;" d="M33 0l151 1167h328l147 -1167h-190l-25 199h-190l-25 -199h-196zM66 1337l206 205h144l205 -205l-123 -129l-154 158l-151 -158zM276 383h146l-74 600z" />
<glyph unicode="&#xe3;" d="M27 1337l166 164h143l98 -100l111 117l127 -129l-166 -164h-144l-98 100l-110 -117zM33 0l151 1167h328l147 -1167h-190l-25 199h-190l-25 -199h-196zM276 383h146l-74 600z" />
<glyph unicode="&#xe4;" d="M33 0h196l25 199h190l25 -199h190l-147 1167h-328zM121 1249v185h184v-185h-184zM276 383l72 600l74 -600h-146zM387 1249v185h184v-185h-184z" />
<glyph unicode="&#xe5;" d="M33 0l139 1038q-55 64 -55 152q0 95 67.5 161t163.5 66q95 0 161 -66t66 -161q0 -90 -55 -158l139 -1032h-180l-39 281h-184l-39 -281h-184zM293 465h110l-55 498zM305 1190q0 -19 12 -31t31 -12t31 12t12 31t-12 31t-31 12t-31 -12t-12 -31z" />
<glyph unicode="&#xe6;" horiz-adv-x="1306" d="M25 0l288 1167h602v-184h-276v-313h195v-185h-195v-301h291v-184h-475v281h-160l-72 -281h-198zM344 465h111v424z" />
<glyph unicode="&#xe7;" d="M82 121v923q0 50 37 86.5t86 36.5h278q52 0 87.5 -36.5t35.5 -86.5v-225h-184v164h-156v-799h156v166h184v-229q0 -50 -36 -85.5t-87 -35.5h-41v-135q0 -50 -36 -85.5t-87 -35.5h-155v184h94v72h-53q-50 0 -86.5 36t-36.5 85z" />
<glyph unicode="&#xe8;" horiz-adv-x="618" d="M82 0v1167h461v-184h-277v-297h195v-184h-195v-318h291v-184h-475zM102 1487l134 127l280 -299l-133 -127z" />
<glyph unicode="&#xe9;" horiz-adv-x="618" d="M82 0h475v184h-291v318h195v184h-195v297h277v184h-461v-1167zM102 1315l281 299l133 -127l-280 -299z" />
<glyph unicode="&#xea;" horiz-adv-x="618" d="M33 1337l207 205h143l205 -205l-123 -129l-154 158l-151 -158zM82 0v1167h461v-184h-277v-297h195v-184h-195v-318h291v-184h-475z" />
<glyph unicode="&#xeb;" horiz-adv-x="618" d="M82 0h475v184h-291v318h195v184h-195v297h277v184h-461v-1167zM84 1249v185h184v-185h-184zM350 1249v185h185v-185h-185z" />
<glyph unicode="&#xec;" horiz-adv-x="348" d="M-33 1487l133 127l281 -299l-133 -127zM82 0v1167h184v-1167h-184z" />
<glyph unicode="&#xed;" horiz-adv-x="348" d="M-33 1315l281 299l133 -127l-281 -299zM82 0h184v1167h-184v-1167z" />
<glyph unicode="&#xee;" horiz-adv-x="348" d="M-102 1317l206 205h144l205 -205l-123 -129l-154 158l-151 -158zM82 0v1167h184v-1167h-184z" />
<glyph unicode="&#xef;" horiz-adv-x="348" d="M-51 1249v185h184v-185h-184zM82 0h184v1167h-184v-1167zM215 1249v185h184v-185h-184z" />
<glyph unicode="&#xf0;" horiz-adv-x="700" d="M37 1348l160 94l145 -250l147 84l95 -160l-150 -84l150 -264q34 -58 34 -117v-530q0 -50 -35.5 -85.5t-86.5 -35.5h-279q-50 0 -86.5 36t-36.5 85v555q0 50 37 86.5t86 36.5h137l-80 139l-139 -78l-92 158l139 80zM279 184h155v430h-155v-430z" />
<glyph unicode="&#xf1;" horiz-adv-x="749" d="M51 1337l166 164h143l99 -100l110 117l127 -129l-166 -164h-143l-98 100l-111 -117zM82 0v1167h225l176 -549v549h185v-1167h-191l-211 668v-668h-184z" />
<glyph unicode="&#xf2;" d="M82 121v923q0 50 37 86.5t86 36.5h278q52 0 87.5 -36.5t35.5 -86.5v-923q0 -50 -36 -85.5t-87 -35.5h-278q-50 0 -86.5 36t-36.5 85zM137 1487l133 127l281 -299l-133 -127zM266 184h156v799h-156v-799z" />
<glyph unicode="&#xf3;" d="M82 121q0 -49 36.5 -85t86.5 -36h278q51 0 87 35.5t36 85.5v923q0 50 -35.5 86.5t-87.5 36.5h-278q-49 0 -86 -36.5t-37 -86.5v-923zM137 1315l281 299l133 -127l-281 -299zM266 184v799h156v-799h-156z" />
<glyph unicode="&#xf4;" d="M66 1337l206 205h144l205 -205l-123 -129l-154 158l-151 -158zM82 121v923q0 50 37 86.5t86 36.5h278q52 0 87.5 -36.5t35.5 -86.5v-923q0 -50 -36 -85.5t-87 -35.5h-278q-50 0 -86.5 36t-36.5 85zM266 184h156v799h-156v-799z" />
<glyph unicode="&#xf5;" d="M23 1337l165 164h144l98 -100l111 117l127 -129l-166 -164h-144l-98 100l-110 -117zM82 121v923q0 50 37 86.5t86 36.5h278q52 0 87.5 -36.5t35.5 -86.5v-923q0 -50 -36 -85.5t-87 -35.5h-278q-50 0 -86.5 36t-36.5 85zM266 184h156v799h-156v-799z" />
<glyph unicode="&#xf6;" d="M82 121q0 -49 36.5 -85t86.5 -36h278q51 0 87 35.5t36 85.5v923q0 50 -35.5 86.5t-87.5 36.5h-278q-49 0 -86 -36.5t-37 -86.5v-923zM119 1249v185h184v-185h-184zM266 184v799h156v-799h-156zM385 1249v185h184v-185h-184z" />
<glyph unicode="&#xf7;" horiz-adv-x="798" d="M41 633v184h717v-184h-717zM307 303v184h185v-184h-185zM307 950v185h185v-185h-185z" />
<glyph unicode="&#xf8;" d="M82 121v923q0 50 37 86.5t86 36.5h278q52 0 87.5 -36.5t35.5 -86.5v-923q0 -50 -36 -85.5t-87 -35.5h-278q-50 0 -86.5 36t-36.5 85zM266 184h156v340l-156 -331v-9zM266 627l156 348v8h-156v-356z" />
<glyph unicode="&#xf9;" d="M82 121v1046h184v-983h156v983h184v-1046q0 -50 -36 -85.5t-87 -35.5h-278q-50 0 -86.5 36t-36.5 85zM137 1487l133 127l281 -299l-133 -127z" />
<glyph unicode="&#xfa;" d="M82 121q0 -49 36.5 -85t86.5 -36h278q51 0 87 35.5t36 85.5v1046h-184v-983h-156v983h-184v-1046zM137 1315l281 299l133 -127l-281 -299z" />
<glyph unicode="&#xfb;" d="M66 1337l206 205h144l205 -205l-123 -129l-154 158l-151 -158zM82 121v1046h184v-983h156v983h184v-1046q0 -50 -36 -85.5t-87 -35.5h-278q-50 0 -86.5 36t-36.5 85z" />
<glyph unicode="&#xfc;" d="M82 121q0 -49 36.5 -85t86.5 -36h278q51 0 87 35.5t36 85.5v1046h-184v-983h-156v983h-184v-1046zM119 1249v185h184v-185h-184zM385 1249v185h184v-185h-184z" />
<glyph unicode="&#xfd;" horiz-adv-x="630" d="M2 1167h191l122 -491l123 491h191l-221 -778v-389h-185v389zM109 1315l280 299l133 -127l-280 -299z" />
<glyph unicode="&#xfe;" horiz-adv-x="348" d="M82 0v303v598v266h184v-266h217q52 0 87.5 -36.5t35.5 -86.5v-354q0 -50 -36 -85.5t-87 -35.5h-217v-303h-184zM266 487h156v230h-156v-230z" />
<glyph unicode="&#xff;" horiz-adv-x="630" d="M2 1167h191l122 -491l123 491h191l-221 -778v-389h-185v389zM90 1249v185h184v-185h-184zM356 1249v185h185v-185h-185z" />
<glyph unicode="&#x152;" horiz-adv-x="958" d="M82 121v1190q0 49 37 86t86 37h678v-185h-277v-395h195v-184h-195v-486h291v-184h-692q-50 0 -86.5 36t-36.5 85zM266 184h156v1065h-156v-1065z" />
<glyph unicode="&#x153;" horiz-adv-x="958" d="M82 121v923q0 50 37 86.5t86 36.5h678v-184h-277v-297h195v-184h-195v-318h291v-184h-692q-50 0 -86.5 36t-36.5 85zM266 184h156v799h-156v-799z" />
<glyph unicode="&#x178;" horiz-adv-x="632" d="M2 1434h191l122 -676l123 676h191l-221 -963v-471h-185v471zM90 1516v184h184v-184h-184zM356 1516v184h185v-184h-185z" />
<glyph unicode="&#x2c6;" horiz-adv-x="632" d="M37 860l207 205h143l205 -205l-123 -129l-154 158l-151 -158z" />
<glyph unicode="&#x2dc;" horiz-adv-x="724" d="M37 1526l166 164h143l98 -101l111 117l127 -129l-166 -164h-143l-99 100l-110 -116z" />
<glyph unicode="&#x2000;" horiz-adv-x="946" />
<glyph unicode="&#x2001;" horiz-adv-x="1892" />
<glyph unicode="&#x2002;" horiz-adv-x="946" />
<glyph unicode="&#x2003;" horiz-adv-x="1892" />
<glyph unicode="&#x2004;" horiz-adv-x="630" />
<glyph unicode="&#x2005;" horiz-adv-x="473" />
<glyph unicode="&#x2006;" horiz-adv-x="315" />
<glyph unicode="&#x2007;" horiz-adv-x="315" />
<glyph unicode="&#x2008;" horiz-adv-x="236" />
<glyph unicode="&#x2009;" horiz-adv-x="378" />
<glyph unicode="&#x200a;" horiz-adv-x="105" />
<glyph unicode="&#x2010;" horiz-adv-x="552" d="M41 647v184h471v-184h-471z" />
<glyph unicode="&#x2011;" horiz-adv-x="552" d="M41 647v184h471v-184h-471z" />
<glyph unicode="&#x2012;" horiz-adv-x="552" d="M41 647v184h471v-184h-471z" />
<glyph unicode="&#x2013;" horiz-adv-x="667" d="M41 633v184h586v-184h-586z" />
<glyph unicode="&#x2014;" horiz-adv-x="897" d="M41 633v184h815v-184h-815z" />
<glyph unicode="&#x2018;" horiz-adv-x="266" d="M41 1167v183l84 84h100v-267h-184z" />
<glyph unicode="&#x2019;" horiz-adv-x="266" d="M41 1167v82v185h184v-185l-82 -82h-102z" />
<glyph unicode="&#x201a;" horiz-adv-x="266" d="M41 0v184h184v-184l-82 -82h-102v82z" />
<glyph unicode="&#x201c;" horiz-adv-x="491" d="M41 1167v183l84 84h100v-267h-184zM266 1167v183l84 84h101v-267h-185z" />
<glyph unicode="&#x201d;" horiz-adv-x="491" d="M41 1167v267h184v-183l-84 -84h-100zM266 1167v267h185v-183l-84 -84h-101z" />
<glyph unicode="&#x201e;" horiz-adv-x="491" d="M41 -84v266h184v-182l-84 -84h-100zM266 -84v266h185v-182l-84 -84h-101z" />
<glyph unicode="&#x2022;" horiz-adv-x="491" d="M61 745v125q0 50 36.5 86.5t86.5 36.5h123q52 0 87.5 -36.5t35.5 -86.5v-125q0 -50 -36 -85t-87 -35h-123q-50 0 -86.5 35.5t-36.5 84.5z" />
<glyph unicode="&#x2026;" horiz-adv-x="798" d="M41 0v184h184v-184h-184zM307 0v184h185v-184h-185zM573 0v184h185v-184h-185z" />
<glyph unicode="&#x202f;" horiz-adv-x="378" />
<glyph unicode="&#x2039;" horiz-adv-x="565" d="M61 672v143l349 348l129 -123l-301 -297l301 -294l-129 -127z" />
<glyph unicode="&#x203a;" horiz-adv-x="565" d="M27 449l301 294l-301 297l129 123l348 -348v-143l-348 -350z" />
<glyph unicode="&#x205f;" horiz-adv-x="473" />
<glyph unicode="&#x20ac;" horiz-adv-x="737" d="M61 451v184h103v143h-103v185h103v471h461v-185h-277v-286h328v-185h-328v-143h328v-184h-328v-267h291v-184h-475v451h-103z" />
<glyph unicode="&#x2122;" horiz-adv-x="954" d="M61 1325v109h301v-109h-96v-496h-108v496h-97zM412 829v605h108l129 -304l135 304h109v-605h-109v312l-90 -191h-88l-82 191v-312h-112z" />
<glyph unicode="&#xe000;" horiz-adv-x="1167" d="M0 0v1167h1167v-1167h-1167z" />
<glyph unicode="&#xfb01;" horiz-adv-x="972" d="M82 0v1167h461v-184h-277v-297h236v-184h-236v-502h-184zM707 0v1167h184v-1167h-184z" />
<glyph unicode="&#xfb02;" horiz-adv-x="1148" d="M82 0v1167h461v-184h-277v-297h236v-184h-236v-502h-184zM707 0v1167h184v-983h217v-184h-401z" />
</font>
</defs>
</svg>
